<svg xmlns="http://www.w3.org/2000/svg" viewBox="0 0 1920 980">
    <rect x="0" y="0" fill="rgba(0,0,0,0.94)" width="1920" height="980"/>
    <style>
        .loginLine{
            opacity:0;
        }
        @keyframes logLine {
            0% {
                opacity: 0;
            }
            10%, 60% {
                opacity: 1;
            }
            100%{
                opacity: 0;
            }
        }
    </style>
    <path class="loginLine" style="animation: logLine 3.80s 0.00s infinite" stroke="#AAAAAA" stroke-width="5" d="M 0 100 L 1920 900"/>
    <path class="loginLine" style="animation: logLine 3.80s 0.20s infinite" stroke="#AAAAAA" stroke-width="5" d="M 1920 250 L 0 800"/>
    <path class="loginLine" style="animation: logLine 3.80s 0.40s infinite" stroke="#AAAAAA" stroke-width="5" d="M 1500 0 L 800 980"/>
    <path class="loginLine" style="animation: logLine 3.80s 0.60s infinite" stroke="#AAAAAA" stroke-width="5" d="M 0 300 L 1920 150"/>
    <path class="loginLine" style="animation: logLine 3.80s 0.80s infinite" stroke="#AAAAAA" stroke-width="5" d="M 700 0 L 900 980"/>
    <path class="loginLine" style="animation: logLine 3.80s 1.00s infinite" stroke="#AAAAAA" stroke-width="5" d="M 1920 550 L 300 980"/>
    <path class="loginLine" style="animation: logLine 3.80s 1.20s infinite" stroke="#AAAAAA" stroke-width="5" d="M 250 0 L 550 980"/>
    <path class="loginLine" style="animation: logLine 3.80s 1.40s infinite" stroke="#AAAAAA" stroke-width="5" d="M 1200 980 L 0 500"/>
    <path class="loginLine" style="animation: logLine 3.80s 1.60s infinite" stroke="#AAAAAA" stroke-width="5" d="M 1700 980 L 1000 0"/>
    <path class="loginLine" style="animation: logLine 3.80s 1.80s infinite" stroke="#AAAAAA" stroke-width="5" d="M 1800 0 L 1500 980"/>
    <path class="loginLine" style="animation: logLine 3.80s 2.00s infinite" stroke="#AAAAAA" stroke-width="5" d="M 200 980 0 L 1650 0"/>
    <path class="loginLine" style="animation: logLine 3.80s 2.20s infinite" stroke="#AAAAAA" stroke-width="5" d="M 450 0 L 700 980"/>
    <path class="loginLine" style="animation: logLine 3.80s 2.40s infinite" stroke="#AAAAAA" stroke-width="5" d="M 600 0 L 1200 980"/>
    <path class="loginLine" style="animation: logLine 3.80s 2.60s infinite" stroke="#AAAAAA" stroke-width="5" d="M 500 980 L 950 0"/>
    <path class="loginLine" style="animation: logLine 3.80s 2.80s infinite" stroke="#AAAAAA" stroke-width="5" d="M 1550 980 L 1300 0"/>
    <path class="loginLine" style="animation: logLine 3.80s 3.00s infinite" stroke="#AAAAAA" stroke-width="5" d="M 1200 0 L 1920 700"/>
    <path class="loginLine" style="animation: logLine 3.80s 3.20s infinite" stroke="#AAAAAA" stroke-width="5" d="M 0 700 L 500 0"/>
    <path class="loginLine" style="animation: logLine 3.80s 3.40s infinite" stroke="#AAAAAA" stroke-width="5" d="M 0 300 L 400 980"/>
    <path class="loginLine" style="animation: logLine 3.80s 3.60s infinite" stroke="#AAAAAA" stroke-width="5" d="M 850 0 L 1300 980"/>
    <path class="loginLine" style="animation: logLine 3.80s 3.80s infinite" stroke="#AAAAAA" stroke-width="5" d="M 1300 980 L 1920 400"/>
</svg>